<svg width="100" height="43" viewBox="0 0 100 43" fill="none" xmlns="http://www.w3.org/2000/svg">
<g clip-path="url(#clip0_374_4614)">
<path d="M0.0129395 42.1981H99.9871V0.984375H0.0129395V42.1981Z" fill="black"/>
<path fill-rule="evenodd" clip-rule="evenodd" d="M51.462 13.4141H47.1524V17.8778L47.075 26.8059V31.2691H51.3846C50.9597 28.2115 50.1627 16.4984 56.7722 17.3004V12.7986C54.0895 12.6984 52.8431 13.1803 51.6161 15.6843L51.462 13.4141ZM64.6996 31.2691H69.0866V5.83301H64.6996V31.2691ZM69.0866 31.2691H64.6996H69.0866ZM58.5811 31.2691H63.0062V13.4135H58.5811V31.2691ZM63.0067 31.2691H58.5811H63.0067ZM58.5043 9.91222H63.0062V5.83301H58.5043V9.91222ZM63.0067 9.91222H58.5043H63.0067ZM70.8182 31.2691H75.2433V13.4135H70.8182V31.2691ZM75.2433 31.2691H70.8182H75.2433ZM70.7795 9.91222H75.2814V5.83301H70.7795V9.91222ZM75.2814 9.91222H70.7795H75.2814ZM32.3754 13.4141H28.1039V36.8876H32.6837V29.1149H32.7605C34.145 31.8345 38.1173 32.2982 40.6487 31.4625C44.5959 30.0535 45.8577 24.8832 45.7285 21.1493C45.6944 17.9472 44.1608 14.2594 41.0338 12.9527C39.6043 12.1984 36.4722 12.4595 34.9539 12.9527L34.6075 13.1069L34.2224 13.2605L33.9147 13.4914L33.4146 13.8765L32.9527 14.3379L32.6837 14.6843H32.6063L32.3754 13.4141ZM32.5295 21.957C32.5295 25.1892 34.4534 27.8054 36.8391 27.8054C39.1868 27.8054 41.1493 25.1887 41.1493 21.957C41.1493 18.7243 39.1868 16.1462 36.8391 16.1462C34.4534 16.1462 32.5295 18.7243 32.5295 21.957ZM14.4048 26.3434C14.4048 24.8815 15.4436 24.1113 16.7525 23.5339C17.9454 22.9963 19.5615 22.7273 21.4853 22.2654C21.4853 25.0351 22.024 27.2297 17.868 28.306C16.0209 28.8066 14.4048 27.8446 14.4048 26.3434ZM26.18 31.231C25.9877 28.9988 25.8336 28.2292 25.8336 27.4982L25.8723 18.3397C25.8723 13.4527 22.2936 12.6831 18.9073 12.5676C17.1757 12.4902 15.0203 12.4521 13.4042 13.3373C11.8268 14.1837 10.787 15.954 10.8262 18.4933H14.9435C14.9435 16.9159 16.3287 15.954 17.9454 15.954C20.3311 15.954 21.4859 16.454 21.4859 18.0701C21.4859 19.7249 20.3698 19.6868 14.8673 20.5713C11.7887 21.11 9.94164 23.2648 9.94164 25.6893C9.82617 29.3845 11.9042 31.8857 15.5983 31.8857C18.5233 31.8857 21.0626 30.8078 21.7549 29.5381H21.8323C21.8323 30.8078 21.9091 30.6149 22.0246 31.2316H26.18V31.231ZM81.7082 26.2672C81.7082 24.8428 82.7475 24.035 84.0559 23.4577C85.2874 22.9201 86.8649 22.6499 88.8274 22.1499C88.8274 24.9589 89.3661 27.1518 85.2101 28.2297C83.3249 28.7303 81.7082 27.8059 81.7082 26.2672ZM93.5221 31.1536C93.2911 28.9607 93.137 28.1529 93.137 27.3827L93.2144 18.2243C93.2144 13.3754 89.6352 12.6444 86.2494 12.4902C84.4791 12.4135 82.3249 12.3748 80.7082 13.2599C79.1308 14.0682 78.0909 15.8766 78.1296 18.4552H82.2469C82.2469 16.8391 83.6708 15.9153 85.288 15.9153C87.6351 15.9153 88.828 16.3772 88.828 17.9933C88.828 19.6481 87.6738 19.6094 82.1707 20.4945C79.0921 21.0332 77.245 23.1886 77.245 25.613C77.1683 29.3458 79.2076 31.8084 82.9409 31.8084C85.8654 31.8084 88.3661 30.7697 89.097 29.4619H89.1357C89.1357 30.7697 89.2512 30.5387 89.3667 31.1542H93.5221V31.1536Z" fill="white"/>
</g>
<defs>
<clipPath id="clip0_374_4614">
<rect width="100" height="41.2281" fill="white" transform="translate(0 0.977051)"/>
</clipPath>
</defs>
</svg>
