<svg width="100" height="37" viewBox="0 0 100 37" fill="none" xmlns="http://www.w3.org/2000/svg">
<g clip-path="url(#clip0_374_4623)">
<path fill-rule="evenodd" clip-rule="evenodd" d="M56.8233 5.6665H55.6692L51.975 15.6248L56.8233 5.6665ZM90.551 18.295L88.3177 24.546L64.0648 24.5335L64.4772 32.1197L37.1918 32.1038L37.0592 24.5836L16.2468 24.6843C26.9076 20.1215 41.2039 19.1602 45.5436 18.8376C49.9187 18.5117 87.874 18.0959 90.9634 18.2955H90.551V18.295ZM91.0618 15.7363C91.125 15.6106 91.6949 14.6725 91.7541 14.5514L67.1992 17.2966L91.0618 15.7363ZM90.208 18.0953L90.3655 17.4713L84.875 17.696L90.208 18.0953ZM90.6557 16.6976L91.0618 15.7363L75.5823 17.2466L90.6557 16.6976Z" fill="#EFC031"/>
<path fill-rule="evenodd" clip-rule="evenodd" d="M15.4407 24.2463L23.5758 21.9385L12.9196 24.2213L15.4407 24.2463ZM10.3489 24.483L24.474 21.4891L7.75327 24.2839L10.3489 24.483ZM8.91941 22.2377C8.84659 22.3879 8.40232 23.0352 8.40232 23.0352L27.0703 20.5903L8.91941 22.2377Z" fill="#EFC031"/>
<path fill-rule="evenodd" clip-rule="evenodd" d="M9.40065 21.0393L8.75217 22.3375L29.815 20.041L9.40065 21.0393Z" fill="#EFC031"/>
<path fill-rule="evenodd" clip-rule="evenodd" d="M9.79998 19.8417L9.20155 21.2041L33.5079 19.3423L9.79998 19.8417Z" fill="#EFC031"/>
<path fill-rule="evenodd" clip-rule="evenodd" d="M10.1493 18.793L9.60089 19.9415L36.2026 18.843L10.1493 18.793Z" fill="#EFC031"/>
<path fill-rule="evenodd" clip-rule="evenodd" d="M10.7983 17.4463L10.0002 18.9936L36.0035 18.394L10.7983 17.4463Z" fill="#EFC031"/>
<path fill-rule="evenodd" clip-rule="evenodd" d="M11.2301 16.2729L10.5986 17.6388L39.0479 18.0739L11.2301 16.2729Z" fill="#EFC031"/>
<path fill-rule="evenodd" clip-rule="evenodd" d="M11.5987 15.4735L11.2301 16.3302L38.5491 17.7955L11.5987 15.4735ZM42.9906 17.8626L12.0464 14.0451L11.6749 15.2004L42.9906 17.8626ZM18.8839 13.2032L11.7966 13.1537L46.435 17.8951L18.8839 13.2032ZM32.2098 13.2322L29.5152 13.2254L48.182 17.9946L32.2098 13.2322ZM36.3931 13.2606L34.8134 13.2538L46.0198 16.9968L36.3931 13.2606ZM37.5894 12.3602V13.16L48.1495 17.5623L37.5894 12.3602ZM37.4506 11.0575L37.524 11.9136L48.8316 17.696L37.4506 11.0575ZM37.4506 9.26049V11.0575L48.1319 17.0259L37.4506 9.26049ZM47.6325 16.4121L37.5012 8.16262L37.5177 8.97323L47.6325 16.4121ZM37.5576 5.6665L37.5689 6.64038L46.7706 14.9643L37.5576 5.6665ZM38.7186 5.6665H37.5576L47.3833 15.2505L38.7186 5.6665Z" fill="#EFC031"/>
<path fill-rule="evenodd" clip-rule="evenodd" d="M39.7163 5.66632L38.7186 5.6703L47.7326 15.1496L39.7163 5.66632ZM46.9339 12.9038L42.5424 5.67485L41.8865 5.67884L46.9339 12.9038ZM41.6931 5.67485L40.3011 5.67884L47.8321 14.851L41.6931 5.67485ZM44.1886 5.65381L43.1909 5.66632L48.5813 14.8009L44.1886 5.65381ZM48.93 14.7503L45.7314 5.66632L44.7876 5.67428L48.93 14.7503ZM47.9334 5.66632H46.1853L50.4283 18.3443L47.9334 5.66632ZM49.8914 14.3891L49.8953 14.4061L49.8914 14.3891L49.0557 5.67087L48.2519 5.65381L49.8914 14.3891ZM49.901 5.65608L49.2053 5.66632L50.2213 14.3009L49.901 5.65608ZM50.6593 13.4032L51.0347 5.66632L49.9909 5.66064L50.6593 13.4032ZM91.7541 14.5512C91.8184 14.4198 92.0129 13.3253 92.0732 13.2024L89.2102 13.1535L58.7637 17.6958L91.7541 14.5512ZM51.8749 5.65608H51.2515L51.1616 11.307L51.8749 5.65608ZM52.9483 5.66632L52.0991 5.68396L51.6002 11.4811L52.9483 5.66632Z" fill="#EFC031"/>
<path fill-rule="evenodd" clip-rule="evenodd" d="M53.697 5.66649H52.9483L51.9005 13.0792L53.697 5.66649ZM55.5133 5.65852L54.1714 5.67445L52.008 14.8904L55.5133 5.65852ZM59.2609 5.65625H57.1903L51.925 16.4234L59.2609 5.65625ZM62.294 5.67673L59.8934 5.66649L52.0746 16.808L62.294 5.67673ZM81.1485 13.2367L78.4521 13.2254L58.4133 17.1965L81.1485 13.2367ZM75.8576 13.2538L72.4735 13.2271L57.2164 17.1965L75.8576 13.2538ZM63.6541 7.01409L63.6484 5.66535L62.732 5.67104L51.826 17.3962L63.6541 7.01409ZM63.6541 9.80942L63.6786 7.73881L52.6992 16.9968L63.6541 9.80942ZM63.6541 10.4084L52.6503 17.4712L63.6683 11.6064L63.6541 10.4084ZM53.148 17.4712L63.6786 13.1537L63.6763 12.524L63.6541 11.9051L53.148 17.4712ZM23.9257 13.2458L28.5669 13.1537L47.2331 17.895L23.9257 13.2458ZM66.0495 13.2367H70.2323L53.9723 17.6459L66.0495 13.2367ZM8.40175 23.0352L7.90344 23.8856L23.875 21.3383L8.40175 23.0352ZM83.768 13.218L87.7113 13.1537L62.7064 16.7972L83.768 13.218ZM90.6386 16.7869L82.1781 17.2966L90.4645 17.4138L90.6386 16.7869ZM37.5689 6.64036L46.9339 15.4991L37.6008 8.01299L37.5689 6.64036Z" fill="#EFC031"/>
<path fill-rule="evenodd" clip-rule="evenodd" d="M17.8435 24.134L22.4592 22.7363L18.7662 24.134H17.8435Z" fill="#57ADE4"/>
<path fill-rule="evenodd" clip-rule="evenodd" d="M89.6033 19.126C89.6613 19.0088 90.0123 18.2113 90.0697 18.0952L55.9445 18.5139L89.6033 19.126ZM89.1721 20.258C89.2279 20.1448 89.3974 19.308 89.4213 19.4218L61.5152 18.7943L89.1721 20.258ZM87.9735 23.9839C88.0304 23.8833 88.1834 23.0914 88.2403 22.9862L59.5498 19.7534L87.9735 23.9839ZM88.9759 20.5526L51.1383 18.5327L51.4591 18.5583L88.7756 20.952C88.8325 20.8422 88.919 20.6647 88.9759 20.5526ZM88.5623 21.5515L51.9216 18.6214L52.2259 18.6533L88.4059 22.0885C88.4059 22.088 88.5054 21.6613 88.5623 21.5515Z" fill="black"/>
<path fill-rule="evenodd" clip-rule="evenodd" d="M88.4059 22.3879L52.4341 18.7046L52.7709 18.7535L88.1408 23.3185C88.1402 23.3185 88.349 22.4977 88.4059 22.3879ZM84.6924 24.0302L52.5058 18.8599L51.859 18.7575L84.5257 24.3129C84.5804 24.2207 84.6361 24.1269 84.6924 24.0302ZM81.6508 24.2839L51.8835 18.8087L51.5825 18.7581L79.0898 24.3504L81.6508 24.2839ZM77.6262 24.3504L51.4238 18.7626L51.2469 18.7319L74.6642 24.3504H77.6262Z" fill="black"/>
<path fill-rule="evenodd" clip-rule="evenodd" d="M74.5646 24.2839L51.6468 18.8315L51.2469 18.7319L72.5998 24.3505L74.5646 24.2839ZM70.3392 24.3175L51.4335 18.8047L52.458 19.1438L68.309 24.4176L70.3392 24.3175ZM67.545 24.384L51.9591 19.0693L65.4494 24.3743L67.545 24.384ZM63.7161 24.0848L51.5592 18.9708L51.2958 18.8832L63.5119 24.4961L63.7161 24.0848ZM63.9971 25.4313L51.1735 18.8923L50.9107 18.7581L63.8173 26.2476L63.9971 25.4313Z" fill="black"/>
<path fill-rule="evenodd" clip-rule="evenodd" d="M63.6842 26.1135L51.3482 19.0308L51.7504 19.3175L63.7161 26.8792L63.6842 26.1135ZM63.7161 27.5777L51.6468 19.3175L51.9483 19.5621L63.7827 28.609L63.7161 27.5777ZM63.7161 29.0755L51.1474 19.1058L63.7827 30.2735L63.7161 29.0755Z" fill="black"/>
<path fill-rule="evenodd" clip-rule="evenodd" d="M63.7827 30.2737L50.9983 18.9792L51.2105 19.1806L63.7161 31.6714L63.7827 30.2737ZM62.6188 31.941L51.173 19.1931L51.4517 19.5685L61.3878 31.7709C61.4663 31.7709 62.3787 31.7567 62.6188 31.941ZM61.3872 31.7709L51.2714 19.5685L60.4094 31.7573C60.4765 31.7567 61.323 31.7709 61.3872 31.7709ZM60.0897 31.8375L50.9062 19.1061L51.1707 19.5054L59.3798 31.7567L60.0897 31.8375ZM58.659 31.7374L51.1195 19.4661L51.4329 20.0782L57.9269 31.7374H58.659ZM57.0623 31.7709L50.9915 19.5685L50.7947 19.1931L56.263 31.7709H57.0623ZM55.598 31.8033L50.7452 19.1305L50.6343 18.8563L54.5997 31.8039L55.598 31.8033ZM54.5991 31.8033L50.5728 18.7192L50.6263 18.9752L54.0462 31.7567C54.09 31.7567 54.5571 31.8033 54.5991 31.8033ZM53.2026 31.7374L50.5905 18.9166L50.6138 19.2056L52.4034 31.7374H53.2026ZM52.1383 31.7374L50.5751 19.1806L50.5882 19.5919L51.3049 31.7044C51.3049 31.7044 52.0956 31.7374 52.1383 31.7374ZM50.7793 31.6839L50.5114 19.4184L50.4847 31.6947C50.5262 31.6941 50.7395 31.6839 50.7793 31.6839ZM50.4739 19.056L49.442 31.8033C49.4829 31.8033 49.8987 31.6833 49.9397 31.6833L50.4739 19.2272V19.056Z" fill="black"/>
<path fill-rule="evenodd" clip-rule="evenodd" d="M50.4494 18.8931L48.856 31.6831C48.8987 31.6831 49.401 31.8032 49.442 31.8032L50.4448 19.0928L50.4494 18.8931ZM50.4471 18.8163L47.6125 31.8032C47.6541 31.8032 48.4351 31.7372 48.4772 31.7372L50.4369 18.9005L50.4471 18.8163ZM50.4369 18.7686L46.8338 31.694C46.877 31.694 47.1535 31.6831 47.1961 31.6831L50.4346 18.8448L50.4369 18.7686ZM49.9881 19.991L45.4492 31.8037C45.4953 31.8037 46.2689 31.7042 46.3144 31.7042L49.9107 20.2914L49.9881 19.991Z" fill="black"/>
<path fill-rule="evenodd" clip-rule="evenodd" d="M49.9989 19.7051L44.828 31.6941C44.8752 31.6941 45.5015 31.7044 45.5488 31.7044L49.8868 19.9667L49.9989 19.7051Z" fill="black"/>
<path fill-rule="evenodd" clip-rule="evenodd" d="M50.0637 19.4304L43.7131 31.738C43.7631 31.738 44.7774 31.6948 44.8286 31.6948L49.9249 19.745L50.0637 19.4304ZM50.1496 19.1807L43.324 31.6834C43.3775 31.6834 43.659 31.7375 43.7125 31.7375L50.0603 19.3696L50.1496 19.1807ZM50.2247 18.9793L42.3524 31.684C42.4087 31.684 42.7978 31.7836 42.8558 31.7836L50.1013 19.208L50.2247 18.9793ZM50.1877 18.9679L41.1572 31.8035L41.7904 31.8046L50.2366 18.9185L50.1877 18.9679ZM49.8874 19.3178L39.9598 31.771C40.0252 31.771 40.5901 31.7375 40.6578 31.7375L50.074 19.0965L49.8874 19.3178ZM49.6877 19.4304L37.8966 31.9047C37.9683 31.9047 39.2004 31.7096 39.2761 31.7096L49.5489 19.617L49.6877 19.4304Z" fill="black"/>
<path fill-rule="evenodd" clip-rule="evenodd" d="M49.7753 19.2427L37.2362 31.7289L37.2453 31.9457L38.0297 31.9371L49.5495 19.5089L49.7753 19.2427ZM49.9789 18.9975L36.8983 30.3739V31.4047L49.8999 19.0789L49.9789 18.9975ZM50.0739 18.8564L36.7981 28.6759L36.6519 29.8364L49.8396 19.0692L50.0739 18.8564Z" fill="black"/>
<path fill-rule="evenodd" clip-rule="evenodd" d="M49.7503 19.0702L36.6315 28.3436L36.6645 28.9761L50.1246 18.8057L49.7503 19.0702ZM36.7981 27.711L48.2149 20.0059L48.9015 19.5298L36.7981 27.2457V27.711ZM36.9642 26.6131L49.3259 19.2056L49.5227 19.0799L36.9313 25.8145L36.9642 26.6131ZM36.7458 25.4453L49.5626 19.0065L49.8146 18.8688L36.9933 24.6318L36.7458 25.4453Z" fill="black"/>
<path fill-rule="evenodd" clip-rule="evenodd" d="M36.8647 24.7165L49.6996 18.8688L50.0245 18.7197L36.8363 24.3741L36.8647 24.7165Z" fill="black"/>
<path fill-rule="evenodd" clip-rule="evenodd" d="M49.2423 18.9458L31.1079 24.2185L33.3043 24.384L49.9642 18.7376L34.5444 24.3744L36.6315 24.5507L49.9619 18.7319L49.2423 18.9458ZM47.9163 19.2183L48.4396 19.0579L25.1527 24.384L28.4986 24.3761L47.9163 19.2183Z" fill="black"/>
<path fill-rule="evenodd" clip-rule="evenodd" d="M26.0173 24.2184L48.9101 18.9059L49.116 18.8314L21.9006 24.492L26.0173 24.2184ZM18.6302 23.7178L16.7786 24.3788L20.9921 24.3504L49.4203 18.7438L49.57 18.6943L18.6302 23.7178Z" fill="black"/>
<path fill-rule="evenodd" clip-rule="evenodd" d="M48.6769 18.7853L49.0267 18.7477L16.9999 24.1506L20.1394 23.0488L48.3276 18.8313L48.6769 18.7853ZM48.579 18.7198L49.438 18.6197L41.4269 19.0566C41.4269 19.0566 38.3949 19.3211 37.0638 19.4884C35.7333 19.6545 32.6382 20.1112 32.6382 20.1112L48.579 18.7198ZM48.0909 18.8313L46.6313 19.0185L22.9558 22.1875C22.9558 22.1875 24.9467 21.6961 25.9803 21.4327C27.0139 21.171 28.5242 20.8769 28.5242 20.8769L45.8815 19.031L48.0909 18.8313ZM46.2928 16.1179L44.1773 14.8773L37.2015 10.7872L37.2834 11.1758L46.2928 16.1179ZM46.0931 15.7112L37.2555 9.72803L37.3283 10.1109L46.0931 15.7112ZM45.1585 14.6315L37.4136 8.56246L37.3778 8.93279L45.1585 14.6315ZM42.4497 11.8186L37.4489 7.2945L37.4262 7.76607L42.4497 11.8186ZM42.3774 10.8174L37.309 5.81719L37.3397 6.36898L42.3774 10.8174ZM44.8787 12.6189L38.1947 5.51741L37.7635 5.52139L44.8787 12.6189ZM46.3321 13.5746L39.28 5.51741L38.8841 5.52083L46.3321 13.5746ZM46.9083 13.6576L40.7784 5.52993L40.2943 5.52196L46.9083 13.6576ZM45.1562 10.6581L41.8507 5.51741L41.4599 5.52083L45.1562 10.6581ZM47.3105 9.34122L46.1688 5.51741H45.7939L47.3105 9.34122ZM48.938 8.37986L48.7013 5.52993H48.3646L48.938 8.37986ZM50.9835 7.95664L51.1849 5.51741H50.8851L50.9835 7.95664ZM51.6684 8.00954L52.2447 5.51912L51.9068 5.52993L51.6684 8.00954ZM53.6611 8.06131L54.6048 5.5322L54.2914 5.51912L53.6611 8.06131ZM54.2971 8.22059L55.4268 5.51741L55.1646 5.51514L54.2971 8.22059ZM52.9017 8.22059L53.6793 5.51741H53.3801L52.9017 8.22059ZM54.9336 8.75075L56.449 5.52993H56.151L54.9336 8.75075ZM55.296 9.66205L57.5987 5.51912L57.2989 5.51741L55.296 9.66205ZM56.0036 9.66603L58.5208 5.51741H58.1954L56.0036 9.66603ZM56.0969 10.6109L59.6568 5.52993L59.3075 5.51741L56.0969 10.6109ZM56.9422 10.1945L60.6807 5.51741L60.2552 5.51912L56.9422 10.1945ZM47.7275 13.2009L43.7978 5.5322L43.51 5.53106L47.7275 13.2009ZM47.7007 12.3271L44.671 5.51741L44.3661 5.52196L47.7007 12.3271ZM62.3395 5.52139L61.964 5.52481L55.8921 12.4602L62.3395 5.52139ZM63.5119 7.4515L63.5016 7.2433L58.6943 11.558L63.5119 7.4515ZM63.5096 6.32404L63.4994 6.11584L58.9065 10.6581L63.5096 6.32404ZM63.5198 8.5016L63.5096 8.31331L60.4953 10.7394L63.5198 8.5016Z" fill="black"/>
<path fill-rule="evenodd" clip-rule="evenodd" d="M36.5922 4.68213V12.2996L37.4569 13.121V5.53654L36.5922 4.68213ZM11.7739 12.3178L12.3905 13.0789L8.04338 23.9968H37.3903V31.5836H63.5198L64.3305 32.3948H36.5905V24.8291H6.79419L11.7739 12.3178ZM63.5198 24.0475L64.3185 24.8456H88.1891L87.5759 24.0475H63.5198Z" fill="black"/>
<path fill-rule="evenodd" clip-rule="evenodd" d="M37.4426 13.121H12.3484L11.7602 12.2888H36.578L37.4426 13.121ZM36.5922 4.68213H64.3185L63.5051 5.52175H37.4136L36.5922 4.68213ZM63.5198 5.50866V13.1165H91.9123L93.141 12.2922H64.3327V4.68213L63.5198 5.50866Z" fill="black"/>
<path fill-rule="evenodd" clip-rule="evenodd" d="M91.8975 13.0875L87.5623 24.0476L88.1891 24.8457L93.141 12.2923L91.8975 13.0875ZM63.5198 24.0476V31.5837L64.3305 32.3949V24.8457L63.5198 24.0476ZM32.3935 8.13742L32.3998 0.530762L34.3134 2.45802V10.0214L32.3935 8.13742ZM35.1434 2.842L37.1252 5.04174L63.9618 5.01557L66.2628 2.83517L35.1434 2.842ZM92.2763 12.7582L96.1087 10.4276L66.3072 10.4333L63.8043 12.744L92.2763 12.7582ZM96.6883 10.0345L99.697 8.10954L91.3457 29.1052L90.1101 26.7138L96.6883 10.0345ZM5.08878 22.4599L9.81876 10.5607L8.63953 8.072L5.08878 22.4599ZM0.288826 29.0728L3.26789 27.1614L34.3237 27.1597L32.4669 29.0813L0.288826 29.0728Z" fill="black"/>
<path fill-rule="evenodd" clip-rule="evenodd" d="M89.5145 27.1567H67.0057L68.5627 29.084H91.402L89.5145 27.1567ZM32.3935 35.5979C33.8316 34.599 34.3111 28.1158 34.3111 28.1158V34.1701L32.393 36.7072L32.3935 35.5979ZM32.4453 36.6543L34.7452 34.7412L66.293 34.7458L68.5724 36.669L32.4453 36.6543Z" fill="black"/>
<path fill-rule="evenodd" clip-rule="evenodd" d="M99.6924 7.89762L68.7726 7.89363V0.313149H40.7903V0.711342L68.3738 0.71191V8.29297H68.5724L99.3983 8.29695L91.2109 28.8773L68.5724 28.8762H68.3738V36.4703L32.6 36.4715V28.8808H32.3998L0.600557 28.8796L8.76525 8.28671L32.3998 8.28728H32.6V0.711342H40.9661V0.313149L32.3998 0.312012H32.2001V7.88794L8.6293 7.88681H8.49334L8.44385 8.01366L0.121017 29.0053L0.0129356 29.2784H0.306462L32.2001 29.2801V36.8708H32.3998L68.5724 36.8697H68.7726V29.275L91.3457 29.2761H91.4799L91.53 29.1515L99.8784 8.17123L99.9871 7.89762H99.6924Z" fill="black"/>
<path fill-rule="evenodd" clip-rule="evenodd" d="M20.252 13.069H37.4944L37.4938 5.47028L63.5716 5.45663V13.0633H91.9242L87.6004 24.0227H63.5716V31.6021H37.4279V24.0301H8.08035L12.411 13.069H20.5768L20.5802 12.5945H12.1408L7.31866 24.4221H37.0007V32.0014H63.9709V24.4249H87.87L92.6256 12.5837H63.9726L63.9715 5.00098H37.0729V12.5945H20.2668L20.252 13.069Z" fill="black"/>
<path fill-rule="evenodd" clip-rule="evenodd" d="M37.0831 5.04158L34.7127 3.24572V9.91833L37.0905 12.6107L37.0831 5.04158ZM10.5622 10.4218L12.217 12.7956L37.3078 12.824L34.3271 10.4286L10.5622 10.4218ZM66.256 34.339V26.7671L63.9607 24.4541L64.0005 31.8702C64.8481 32.3691 65.273 33.219 66.256 34.339ZM32.4311 8.17196L32.5062 7.74703L34.31 10.0327L32.0562 8.1219L32.4311 8.17196ZM66.6673 2.4391V10.0503C66.8675 7.9046 67.5541 2.08299 68.5769 1.68309L68.5667 0.535156L66.6673 2.4391Z" fill="black"/>
<path fill-rule="evenodd" clip-rule="evenodd" d="M66.6952 10.0228L68.5416 8.10062V5.30302C67.8181 5.30302 66.9193 8.57561 66.6952 10.0228ZM89.6198 26.7566L87.8643 24.3754C87.8643 24.3754 88.0975 22.7206 88.4645 22.5875C90.3946 21.8884 93.9988 15.709 96.0609 10.5182L89.6198 26.7566ZM63.9607 31.1567L66.256 34.3394L63.8964 31.8763L63.9607 31.1567ZM66.6627 27.5342V34.2506L68.5724 36.6694V29.0417L66.6627 27.5342ZM34.7031 34.3246V26.8135L37.2555 24.1524V31.7392L34.7031 34.3246ZM10.2784 10.6303L12.266 12.8391L7.44211 24.3521L3.83845 26.7788L10.2784 10.6303ZM9.81876 10.5609L8.6401 8.07218C8.6401 8.07218 7.57692 10.7469 7.00352 12.1696C7.93587 12.4774 6.29929 19.3951 5.08935 22.4601L9.81876 10.5609ZM72.6203 3.86156C72.8848 4.12664 73.0168 4.44804 73.0168 4.82405C73.0168 5.20291 72.8848 5.52601 72.6203 5.79337C72.4959 5.92265 72.3461 6.02489 72.1804 6.0937C72.0147 6.16251 71.8366 6.1964 71.6572 6.19327C71.478 6.19621 71.3001 6.16222 71.1347 6.09342C70.9692 6.02462 70.8196 5.92248 70.6953 5.79337C70.5675 5.66685 70.4666 5.51572 70.3989 5.34911C70.3311 5.1825 70.2978 5.00388 70.3011 4.82405C70.3011 4.44804 70.4342 4.12664 70.6976 3.86156C70.8216 3.73248 70.9708 3.63027 71.136 3.56128C71.3012 3.49229 71.4788 3.45799 71.6578 3.46052C72.0332 3.46109 72.3558 3.59534 72.6203 3.86156ZM72.7767 3.70854C72.6312 3.55956 72.4568 3.44185 72.2642 3.36262C72.0716 3.28339 71.8649 3.24431 71.6567 3.24777C71.2221 3.24777 70.8512 3.40193 70.5434 3.70854C70.3941 3.85309 70.276 4.0267 70.1964 4.21865C70.1167 4.4106 70.0773 4.61683 70.0804 4.82462C70.0804 5.2632 70.2328 5.63808 70.5406 5.94696C70.6846 6.09721 70.8582 6.21609 71.0503 6.29616C71.2425 6.37623 71.4491 6.41576 71.6572 6.41228C72.0958 6.41228 72.4684 6.25698 72.7773 5.94696C72.927 5.80133 73.0454 5.62667 73.1252 5.43368C73.205 5.24069 73.2446 5.03344 73.2415 4.82462C73.2443 4.61671 73.2046 4.41041 73.1247 4.21846C73.0447 4.02651 72.9263 3.85296 72.7767 3.70854ZM71.8922 4.75124C71.8268 4.7774 71.73 4.78992 71.6009 4.78992H71.3256V4.16134H71.5867C71.7556 4.16134 71.8791 4.18239 71.9553 4.22562C72.031 4.26886 72.0708 4.35361 72.0708 4.4799C72.0714 4.61358 72.0099 4.70402 71.8922 4.75124ZM71.0201 5.68813H71.3256V5.00324H71.5656C71.7289 5.00324 71.8432 5.02201 71.9081 5.05955C72.0167 5.12383 72.0714 5.25695 72.0714 5.45832V5.59598L72.077 5.65173L72.0816 5.67164C72.0827 5.67733 72.0839 5.68301 72.0861 5.6887H72.3728L72.3615 5.66652C72.3526 5.63735 72.3478 5.60711 72.3472 5.57664C72.345 5.53056 72.3427 5.4879 72.3427 5.44751V5.32066C72.339 5.22351 72.3061 5.12973 72.2483 5.05159C72.1851 4.95887 72.0839 4.90255 71.9496 4.88094C72.0566 4.86387 72.1396 4.83543 72.2005 4.79731C72.3125 4.72393 72.3717 4.61016 72.3717 4.45487C72.3717 4.23643 72.2807 4.08967 72.1015 4.01515C71.9991 3.97419 71.8438 3.95371 71.6271 3.95371H71.0207V5.68813H71.0201Z" fill="black"/>
</g>
<defs>
<clipPath id="clip0_374_4623">
<rect width="100" height="36.5789" fill="white" transform="translate(0 0.301758)"/>
</clipPath>
</defs>
</svg>
