<svg width="100" height="21" viewBox="0 0 100 21" fill="none" xmlns="http://www.w3.org/2000/svg">
<g clip-path="url(#clip0_374_4617)">
<path fill-rule="evenodd" clip-rule="evenodd" d="M0.0311432 0.325195H99.9688V20.8567H0.0311432V0.325195Z" fill="#CC2229"/>
<path fill-rule="evenodd" clip-rule="evenodd" d="M3.29922 7.29642H30.9113V13.0698H3.29922V7.29642ZM40.9324 10.9998H62.5536V17.372H40.9324V10.9998ZM89.6213 3.2666H96.6468V17.372H89.6213V3.2666Z" fill="white"/>
<path fill-rule="evenodd" clip-rule="evenodd" d="M40.9324 3.2666H48.5566V17.372H40.9324V3.2666ZM32.1094 3.2666H39.7342V17.372H32.1094V3.2666ZM69.2516 5.66238H76.2771V17.372H69.2516V5.66238Z" fill="white"/>
<path fill-rule="evenodd" clip-rule="evenodd" d="M88.4227 3.2666H57.1077V9.69272H88.4227V3.2666ZM3.29922 3.2666H10.8145V17.372H3.29922V3.2666ZM23.4499 3.2666H30.9657V17.372H23.4499V3.2666Z" fill="white"/>
</g>
<defs>
<clipPath id="clip0_374_4617">
<rect width="100" height="20.5931" fill="white" transform="translate(0 0.294434)"/>
</clipPath>
</defs>
</svg>
