<svg width="101" height="81" viewBox="0 0 101 81" fill="none" xmlns="http://www.w3.org/2000/svg">
<g clip-path="url(#clip0_374_4661)">
<path fill-rule="evenodd" clip-rule="evenodd" d="M12.5261 70.5416L14.0242 70.6996C14.7341 70.7792 14.7341 71.3311 14.7341 71.7255V73.5391H7.79398V71.7255C7.79398 71.3317 7.87299 70.7792 8.58287 70.6996L10.081 70.5416V69.0435H1.09091V70.5416L2.58967 70.6996C3.22053 70.7792 3.29893 71.3311 3.29893 71.7255V77.5613C3.29893 77.9564 3.22053 78.5088 2.58967 78.5872L1.09091 78.7453V80.2434H10.0816V78.7453L8.58347 78.5872C7.8736 78.5088 7.79459 77.957 7.79459 77.5613V75.8268H14.7347V77.5613C14.7347 77.9564 14.7347 78.5088 14.0248 78.5872L12.5267 78.7453V80.2434H21.5168V78.7453L20.0186 78.5872C19.3878 78.5088 19.3088 77.957 19.3088 77.5613V71.7255C19.3088 71.3317 19.3878 70.7792 20.0186 70.6996L21.5168 70.5416V69.0435H12.5261V70.5416ZM72.7006 69.0435H61.5802V70.5416L62.9216 70.6996C63.3938 70.7792 63.7098 70.9373 63.7098 71.6471V77.5607C63.7098 77.9558 63.6314 78.5082 62.9216 78.5866L61.4222 78.7446V80.2428H72.7006C76.7222 80.2428 80.0351 78.6662 80.0351 74.6434C80.0357 70.6212 76.7222 69.0435 72.7006 69.0435ZM71.9123 78.1126H68.1265V71.1731H71.9123C74.1203 71.1731 74.8302 72.199 74.8302 74.6428C74.8302 77.0879 74.1203 78.1126 71.9123 78.1126Z" fill="#C23C40"/>
<path fill-rule="evenodd" clip-rule="evenodd" d="M99.0424 78.5861C98.3326 78.5077 98.0949 78.0342 97.8591 77.7182L92.6542 69.7534C92.2604 69.2015 92.0227 69.0435 91.4709 69.0435H82.9536V70.5416L84.9252 70.7793C85.2412 70.7793 85.6351 71.1731 85.319 71.7256L81.4555 77.9564C81.2974 78.1928 81.1394 78.5083 80.666 78.5867L79.1678 78.7447V80.2428H86.3449V78.7447L85.1616 78.6663C84.6098 78.5867 84.2937 78.1928 84.6098 77.7984L85.1616 76.8509H92.1023L92.5758 77.6404C93.048 78.2706 92.4962 78.5867 91.9443 78.5867L90.6826 78.7447V80.2428H100.462V78.7447L99.0424 78.5861ZM86.3443 74.8009L88.474 71.4095L90.7604 74.8009H86.3443ZM53.4574 70.5416L55.0352 70.6997C55.6654 70.7793 55.7451 71.3311 55.7451 71.7256V77.325L49.8297 69.5176C49.5142 69.1225 49.2778 69.0441 48.6469 69.0441H40.9179V70.5423L42.4161 70.7003C43.126 70.7799 43.205 71.3317 43.205 71.7262V77.562C43.205 77.957 43.126 78.5095 42.4161 78.5879L40.9179 78.7459V80.2441H48.0945V78.7459L46.5957 78.5879C45.9649 78.5095 45.8858 77.9576 45.8858 77.562V71.9626L51.8012 79.7712C52.1173 80.165 52.3531 80.2435 52.9834 80.2435H58.4259V71.7262C58.4259 71.3324 58.5043 70.7799 59.2142 70.7003L60.7123 70.5423V69.0441H53.4568V70.5416H53.4574ZM31.2174 68.6497C23.8828 68.6497 21.9902 71.883 21.9902 74.6429C21.9902 77.4824 23.8828 80.6373 31.2174 80.6373C38.5519 80.6373 40.4451 77.4824 40.4451 74.6429C40.4445 71.883 38.5519 68.6497 31.2174 68.6497ZM31.2174 78.5077C28.3785 78.5077 27.1952 77.3243 27.1952 74.6429C27.1952 71.9614 28.3779 70.7793 31.2174 70.7793C34.0569 70.7793 35.2396 71.9614 35.2396 74.6429C35.2396 77.3243 34.0569 78.5077 31.2174 78.5077ZM27.2742 66.9139L21.8322 61.8664L49.2778 58.7127L62.5277 66.9139H27.2742ZM73.4888 45.3831L15.7594 56.1886L20.7279 60.8405L47.3846 57.5287C46.9111 57.2923 46.8327 57.0553 46.8327 56.7405C46.8327 56.4244 47.0692 56.109 47.542 56.0306C47.779 56.0306 62.2901 53.901 63.3154 53.743C63.7876 53.6633 64.9716 53.4269 66.2333 52.7967C67.495 52.2448 68.2833 51.6133 68.7568 51.1393C69.1506 50.8244 70.2549 49.6411 71.0444 48.7732C71.4921 48.3248 71.9133 47.8507 72.3061 47.3535C72.6222 46.9597 73.332 46.0918 73.6463 45.6973C73.7265 45.5411 73.6469 45.3831 73.4888 45.3831ZM82.5592 32.7652L10.3971 51.2985L14.7347 55.3213L36.9748 51.0621C36.5809 50.8257 36.3439 50.6683 36.3439 50.2738C36.3469 50.0996 36.4122 49.9323 36.5279 49.8021C36.6437 49.6719 36.8022 49.5874 36.9748 49.5639L73.095 42.5448C73.5684 42.4658 74.8302 42.2288 76.0129 41.4405C77.1962 40.7306 77.8277 39.9424 78.2221 39.5473C78.6944 38.9955 79.5623 37.8911 80.1937 37.1029C80.666 36.472 81.0616 35.8412 81.3758 35.3683C81.6919 34.8955 82.4018 33.6331 82.7956 33.0813C82.8746 32.9226 82.7172 32.6862 82.5592 32.7652Z" fill="#C23C40"/>
<path fill-rule="evenodd" clip-rule="evenodd" d="M73.0166 11.7871C73.9629 11.3926 78.774 9.34201 79.798 8.78955C80.903 8.31671 84.0573 6.89696 85.2406 6.34511C86.5807 5.79326 90.3665 3.97907 90.9184 3.74265C93.5998 2.48092 96.9128 0.903767 97.5431 0.509326C97.7011 0.430316 98.0165 0.588335 97.9369 0.824757C97.3723 2.64512 96.7143 4.43515 95.9653 6.1877C95.493 7.29201 94.7832 8.86917 94.1517 9.89447C93.3634 11.1568 92.5751 12.0235 91.9437 12.5759C90.6036 13.8383 89.4986 14.4691 88.3159 14.9426C87.606 15.179 86.1079 15.8099 85.0826 16.2043C84.8462 16.2833 80.8234 17.7815 79.9555 18.0179L8.81929 43.1758C7.16312 43.7277 5.27053 44.8314 5.27053 46.961C5.27053 47.9085 5.82299 49.1702 6.9267 50.1943L24.9081 66.914H16.5483C16.3909 66.4418 16.1538 65.7319 15.8384 65.2579C15.523 64.7838 15.3656 64.3116 14.4186 63.4443C13.7094 62.6548 12.9995 61.9461 12.7625 61.7091L3.29832 52.2462C1.48474 50.511 0.537842 48.2234 0.537842 46.1734C0.537842 43.3339 2.115 40.574 6.84708 38.6808L73.0166 11.7871Z" fill="#C23C40"/>
<path fill-rule="evenodd" clip-rule="evenodd" d="M80.8234 21.3298C81.7697 21.0144 83.5845 20.3835 84.0567 20.2261C84.5301 20.0687 86.4227 19.3589 86.7382 19.2798C87.9999 18.728 89.2616 18.2545 90.603 17.7027C90.7598 17.6237 90.9968 17.7817 90.9178 18.0181C90.7598 18.4126 89.8931 20.1471 89.6561 20.5416C89.1042 21.6459 88.5523 22.6712 87.9999 23.5385C87.448 24.4064 86.7382 25.5891 86.2653 26.1415C85.4758 27.0878 84.766 27.7187 83.6622 28.5076C82.2425 29.4539 80.9808 29.7693 80.4289 30.0063L27.984 44.0433C27.5902 44.1217 27.4322 44.5952 27.4322 44.7532C27.4322 45.0693 27.6686 45.3835 27.984 45.5415L9.37175 50.3526L7.8736 48.9328C7.32175 48.4606 7.08472 47.7507 7.08472 47.1983C7.08472 45.8569 8.11002 45.2267 9.7668 44.6748L80.8234 21.3298Z" fill="#C23C40"/>
</g>
<defs>
<clipPath id="clip0_374_4661">
<rect width="100" height="80.1781" fill="white" transform="translate(0.5 0.488281)"/>
</clipPath>
</defs>
</svg>
