<svg width="40" height="40" viewBox="0 0 40 40" fill="none" xmlns="http://www.w3.org/2000/svg">
<path d="M32.8588 14.2859C32.8588 21.4001 20.0017 38.5716 20.0017 38.5716C20.0017 38.5716 7.14453 21.4001 7.14453 14.2859C7.14453 10.8759 8.49912 7.60566 10.9103 5.19448C13.3215 2.7833 16.5917 1.42871 20.0017 1.42871C23.4116 1.42871 26.6819 2.7833 29.093 5.19448C31.5042 7.60566 32.8588 10.8759 32.8588 14.2859Z" fill="#D64E78" stroke="white" stroke-width="2" stroke-linecap="round" stroke-linejoin="round"/>
<path d="M20.0006 18.5714C22.3675 18.5714 24.2863 16.6526 24.2863 14.2857C24.2863 11.9188 22.3675 10 20.0006 10C17.6336 10 15.7148 11.9188 15.7148 14.2857C15.7148 16.6526 17.6336 18.5714 20.0006 18.5714Z" fill="#D64E78" stroke="white" stroke-width="2" stroke-linecap="round" stroke-linejoin="round"/>
</svg>
