<svg width="18" height="18" viewBox="0 0 18 18" fill="none" xmlns="http://www.w3.org/2000/svg">
<path d="M14.7863 6.42829C14.7863 9.62972 9.00056 17.3569 9.00056 17.3569C9.00056 17.3569 3.21484 9.62972 3.21484 6.42829C3.21484 4.89383 3.82441 3.42221 4.90944 2.33717C5.99447 1.25214 7.46609 0.642578 9.00056 0.642578C10.535 0.642578 12.0066 1.25214 13.0917 2.33717C14.1767 3.42221 14.7863 4.89383 14.7863 6.42829V6.42829Z" stroke="#D64E78" stroke-linecap="round" stroke-linejoin="round"/>
<path d="M8.99888 8.35714C10.064 8.35714 10.9275 7.49369 10.9275 6.42857C10.9275 5.36345 10.064 4.5 8.99888 4.5C7.93376 4.5 7.07031 5.36345 7.07031 6.42857C7.07031 7.49369 7.93376 8.35714 8.99888 8.35714Z" stroke="#D64E78" stroke-linecap="round" stroke-linejoin="round"/>
</svg>
